<svg width="39" height="24" viewBox="0 0 39 24" fill="none" xmlns="http://www.w3.org/2000/svg">
<path fill-rule="evenodd" clip-rule="evenodd" d="M11.8453 1.92527C9.12273 2.92991 6.38373 4.34909 4.2969 6.0395C1.93355 7.95386 0.452608 10.063 0.0906664 12.7229C-0.305863 15.6371 0.553843 17.9329 3.55155 19.804C8.42408 22.8452 18.629 23.56 24.5596 22.6647C27.7539 22.1825 30.8491 21.1872 33.3346 19.5383C35.7256 17.952 37.5577 15.7644 37.9902 13.3189C38.0847 12.7845 37.6726 13.6828 37.657 13.7151C37.3387 14.3741 37.039 15.049 36.6349 15.68C36.066 16.5686 34.7564 17.7184 33.8043 18.3861C31.3871 20.0814 28.4028 21.1274 25.2345 21.6712C19.3618 22.6791 9.0312 22.0034 4.06602 19.1338C1.25625 17.5099 -0.239098 15.0872 0.319372 12.3595C0.79549 10.0341 2.99596 7.75195 5.19849 6.19077C7.44578 4.59786 10.2423 3.25304 13.0596 2.35618C16.9637 1.21768 18.0797 1.12068 20.6476 0.932181L20.6877 0C17.7049 0.278182 14.7182 0.888863 11.8453 1.92532L11.8453 1.92527Z" fill="#BE91C1"/>
<path fill-rule="evenodd" clip-rule="evenodd" d="M24.2816 2.08828C20.2328 2.38823 16.8295 3.32592 14.3128 4.41073L13.823 5.51587C14.7268 5.08205 15.7844 4.66514 17.0694 4.27342C22.3556 2.53319 28.6002 2.25946 33.5168 5.04287C35.6471 6.25278 37.136 7.80532 37.7872 9.79928C38.0106 10.4832 38.0342 10.9561 38.0803 11.6564C38.1058 12.0439 38.1373 12.17 38.1684 12.1535C38.2221 12.125 38.2741 11.6696 38.2904 11.4017C38.3618 10.2275 38.1082 9.01173 37.5381 7.92042C35.4396 3.90378 29.6496 1.88105 24.2815 2.08833L24.2816 2.08828Z" fill="#BE91C1"/>
<path fill-rule="evenodd" clip-rule="evenodd" d="M18.7921 4.88842C17.2125 4.95901 14.5829 6.07243 13.233 6.74765C11.7937 7.46756 9.9762 8.62056 9.13808 9.79043C8.43079 10.7778 10.1951 11.1312 9.7462 10.3498C9.52149 9.95856 9.73931 9.80265 10.0819 9.50352C10.4002 9.22556 10.7035 8.92929 11.0418 8.66733C12.3261 7.67279 14.1183 6.74174 15.7572 6.1377C16.6441 5.81083 17.7994 5.45965 18.7683 5.34674C19.163 5.3007 20.0368 5.34893 20.3169 5.57888C20.6434 5.84697 20.2331 6.44942 20.0361 6.71688C19.1648 7.8997 17.7796 9.19738 16.7277 10.327C14.5348 12.6818 12.1816 15.4657 10.9844 18.2224C9.84179 20.8533 10.5532 21.3461 13.6363 19.9079C15.3233 19.1209 16.7228 18.2509 18.2609 17.3148C18.4692 17.1881 19.228 16.738 19.2675 16.5621C19.3358 16.2577 19.0097 16.4077 18.8115 16.4753C18.1374 16.7053 17.7967 17.1224 17.1589 17.4787C16.7811 17.6898 16.4123 17.9353 16.0326 18.1536C15.2751 18.5891 14.463 19.0245 13.652 19.3977C13.227 19.5933 12.81 19.7516 12.3777 19.959C12.0998 20.0923 11.3864 20.4431 11.1154 20.1447C10.5777 19.5528 12.6056 16.3851 13.0679 15.696C13.951 14.3796 14.9728 13.0617 16.0534 11.8363C17.1273 10.6184 18.3127 9.47188 19.4167 8.26856C19.9006 7.7412 20.7025 6.8992 20.8288 6.26906C21.0458 5.18629 20.0061 4.83429 18.7921 4.88851V4.88842Z" fill="#C095C3"/>
<path fill-rule="evenodd" clip-rule="evenodd" d="M26.811 15.5277C26.7861 15.6447 26.4038 17.1443 26.2909 16.3689C26.1583 15.4586 26.9286 14.9721 26.811 15.5277ZM30.3056 15.1063C30.058 15.0454 29.9434 13.0437 30.3167 13.1769C30.7724 13.3393 30.513 14.8741 30.3056 15.1063V15.1063ZM27.3701 14.9601C27.3204 14.9522 26.4287 15.1136 26.3785 15.1329C26.0967 15.2412 25.8954 15.4363 25.8297 15.6785C25.725 16.065 25.8338 16.9657 25.3992 17.2247C25.0069 16.9567 25.1347 15.9571 24.8258 15.5617C24.5903 15.2602 24.2448 15.259 23.9548 15.4874C23.6746 15.7081 23.6784 15.998 23.5206 16.2091C23.5043 16.0831 23.42 15.7209 23.3733 15.6083C23.284 15.3931 23.031 15.3707 22.8244 15.523C22.6926 15.8272 23.0392 17.4705 23.3144 17.6992C24.0406 17.8843 23.7977 17.0129 23.8365 16.6838C23.8566 16.5135 24.032 15.6006 24.2937 15.6092C24.4886 15.6724 24.641 16.8719 24.7955 17.1457C24.9431 17.4073 25.1922 17.5548 25.5676 17.3851C25.9467 17.2137 25.8718 16.9079 26.0212 16.7641C26.077 16.7566 26.3489 16.9447 26.6043 16.7468C26.7918 16.6014 26.8117 16.3744 26.8904 16.3019C27.047 16.3783 27.1283 17.318 27.7733 17.324C28.4365 17.3301 28.3771 16.5394 28.591 16.2423C28.7906 16.4855 28.8821 16.8291 29.4126 16.7505C29.8514 16.6854 29.853 16.2832 29.9736 16.0207C30.1577 16.111 30.6038 17.035 31.3593 16.4969C31.6207 16.3107 32.031 15.2437 31.798 15.1437C31.4963 15.0722 31.441 15.803 31.3496 15.9894C31.1891 16.3169 31.0378 16.6668 30.6967 16.1159C30.4408 15.7027 30.3536 15.6494 30.585 15.2155C30.733 14.9377 30.8654 14.5514 30.929 14.255C31.3914 12.1001 28.8423 12.5474 29.5133 15.0153C29.6333 15.4568 29.8357 15.5076 29.6443 15.9617C29.5516 16.1817 29.436 16.881 29.1867 16.2325C29.0596 15.902 28.977 15.5753 28.9162 15.234C28.8906 15.0903 28.925 14.8141 28.7667 14.7357C28.5289 14.6179 28.3894 14.8329 28.3818 14.9981C28.3581 15.5098 28.4871 15.5328 28.3062 16.0632C28.2638 16.1875 28.025 16.956 27.9036 16.9652C27.7609 16.9761 27.6431 15.0799 27.3701 14.9602V14.9601Z" fill="#C095C3"/>
<path fill-rule="evenodd" clip-rule="evenodd" d="M21.8052 13.2981C21.5853 13.0648 21.635 12.6576 21.1757 12.458C20.574 12.1965 20.2699 12.8877 20.1685 12.9318L20.001 12.4325C19.9439 12.4456 19.6596 12.4543 19.547 12.5359C19.417 12.6301 19.5096 12.7644 19.53 12.8811C19.5715 13.1169 19.5761 13.4345 19.6491 13.6679C19.7339 13.939 19.8209 14.1219 19.7522 14.4064C19.711 14.5766 19.7326 15.1582 19.5863 15.1784L19.0314 12.9474C18.4193 12.7428 18.4452 13.5036 18.3883 13.7616C18.3526 13.9233 18.1683 14.7999 18.0279 14.8468C17.658 14.7248 17.5842 13.189 17.4152 13.0455L17.4004 13.0085L16.8683 13.1629C16.7412 13.4242 17.1933 14.737 17.411 14.9731C17.6652 15.2486 18.118 15.1864 18.357 14.9647C18.6089 14.7312 18.5621 14.3569 18.7064 14.1044C18.7829 14.5483 18.8779 15.0087 19.1657 15.3898C19.3124 15.584 19.6207 15.6526 19.861 15.5056C20.1029 15.3577 20.0227 15.0536 20.0977 14.87C20.2532 14.8362 20.753 14.9476 20.612 14.6071C20.4832 14.2961 20.4656 12.8041 20.811 12.7094C21.0563 12.5991 21.3246 13.5224 21.3835 13.6459C21.4824 13.8535 21.5089 14.7686 22.0209 14.4626C22.1357 14.3486 22.0399 13.1305 22.327 13.1128C22.412 13.1496 22.7374 13.8497 22.9746 14.0526C23.5893 14.5783 23.9417 13.6597 23.9515 13.6562C24.006 13.6666 24.5464 14.5316 25.1462 13.9684C25.2796 13.8431 25.5714 12.7739 25.4813 12.7065L25.2732 12.6899C24.9799 12.9586 25.0105 14.7655 24.4676 13.2928C24.3346 12.9321 24.3093 12.6366 24.221 12.2862C24.1762 12.1081 24.1533 11.937 23.8585 12.0328C23.6361 12.1051 23.7146 12.3552 23.7127 12.5276C23.7071 13.0242 23.8809 13.0413 23.6747 13.5737C23.226 14.732 23.1789 12.9715 22.623 12.7634C22.1228 12.5761 21.9467 13.1439 21.805 13.298L21.8052 13.2981Z" fill="#C095C3"/>
<path fill-rule="evenodd" clip-rule="evenodd" d="M27.3606 12.9048C27.4718 13.0391 27.755 13.7731 27.2528 13.5975C26.8214 13.4467 27.0575 13.0686 27.3606 12.9048ZM26.3136 13.9615C26.5628 13.8133 26.5365 12.2055 26.5365 11.8913L27.1936 12.6833C27.0482 12.8803 26.43 13.1285 26.6054 13.5041C26.9361 14.2123 28.5776 13.7765 28.0607 12.836C27.9039 12.5508 27.9652 12.6176 28.2335 12.4451C28.346 12.3728 28.6442 12.1948 28.5748 12.0734C28.4118 11.9652 28.1039 12.2479 27.9658 12.347C27.7432 12.5065 27.6312 12.2159 27.4785 12.0573C27.2776 11.8487 26.7215 11.3186 26.4007 11.266C25.9607 11.1938 26.1706 12.4256 26.1643 12.6497C26.1575 12.8903 26.1552 13.1726 26.1041 13.4058C26.0681 13.5701 25.9428 14.0593 26.3136 13.9616V13.9615Z" fill="#C095C3"/>
<path fill-rule="evenodd" clip-rule="evenodd" d="M25.0592 5.50744L25.7836 6.12258L25.2493 6.81394L26.2276 6.50113L26.9488 7.11835L26.8359 6.30099L27.827 5.97667L26.7679 5.79871L26.6591 4.98108L26.1174 5.68849L25.0592 5.50744Z" fill="#C49BC7"/>
<path fill-rule="evenodd" clip-rule="evenodd" d="M25.3531 11.492C25.3282 11.5513 25.3204 11.6136 25.3206 11.679C25.321 11.7887 25.298 11.7968 25.2854 11.8806C25.2616 12.04 25.4857 12.0371 25.608 11.9617C25.7245 11.8898 25.7194 11.7247 25.6838 11.6261C25.6206 11.4512 25.5771 11.4344 25.3531 11.492V11.492Z" fill="#C89FC9"/>
<path fill-rule="evenodd" clip-rule="evenodd" d="M23.8698 11.4671C23.8444 11.4732 23.6162 11.4705 23.6319 11.6793C23.6422 11.8164 23.7907 11.8426 23.9483 11.8311C24.2898 11.8059 24.1977 11.3881 23.8698 11.4671Z" fill="#C49BC7"/>
<path fill-rule="evenodd" clip-rule="evenodd" d="M28.5757 14.1943C28.5097 14.2068 28.3344 14.1978 28.3589 14.4059C28.3745 14.5386 28.5184 14.5649 28.6694 14.5396C28.9396 14.4943 28.9281 14.1273 28.5757 14.1943H28.5757Z" fill="#C49BC7"/>
<path fill-rule="evenodd" clip-rule="evenodd" d="M25.642 3.67269L26.0613 4.01937L25.7634 4.41701L26.3184 4.23273L26.7361 4.58064L26.6636 4.11496L27.2259 3.92405L26.6198 3.82878L26.5496 3.36292L26.2476 3.76973L25.642 3.67269Z" fill="#C49BC7"/>
<path fill-rule="evenodd" clip-rule="evenodd" d="M25.6849 7.63823L26.0846 7.96946L25.7996 8.34864L26.3296 8.17332L26.7275 8.50573L26.6591 8.06128L27.1959 7.87964L26.6178 7.78814L26.5516 7.34351L26.2627 7.73142L25.6849 7.63823Z" fill="#C49BC7"/>
<path fill-rule="evenodd" clip-rule="evenodd" d="M26.4536 8.87573L26.2879 9.01346L26.0762 8.93346L26.1858 9.09791L26.0194 9.23519L26.2557 9.20009L26.3689 9.3666L26.4009 9.17882L26.6374 9.14446L26.4208 9.06346L26.4536 8.87573Z" fill="#C49BC7"/>
</svg>
